# xmcd
#
# Track frame offsets: 
#        150
#        24946
#        37598
#        53259
#        86511
#
# Disc length: 1560 seconds
#
# Revision: 0
# Processed by: cddbd v1.5.2PL0 Copyright (c) Steve Scherf et al.
# Submitted via: ExactAudioCopy v0.95a5
#
DISCID=22061605
DTITLE=Shy Of The Depth - EP
DYEAR=2008
DGENRE=Acid
TTITLE0=Frozen Still Flows
TTITLE1=Worth Is Wealth
TTITLE2=Unborn Menace
TTITLE3=Bastard Approach
TTITLE4=data
EXTD=
EXTT0=
EXTT1=
EXTT2=
EXTT3=
EXTT4=
PLAYORDER=
